<svg width="20" height="20" viewBox="0 0 20 20" fill="none" xmlns="http://www.w3.org/2000/svg">
<g clip-path="url(#clip0_92_205)">
<path d="M17.0707 5.25918H8.98993V11.9999H0.909118V3.33325H-1.11108V17.7777H0.909118V14.8888H19.0909V17.7777H21.1111V9.11103C21.1111 8.08946 20.6855 7.10972 19.9277 6.38736C19.17 5.665 18.1423 5.25918 17.0707 5.25918ZM4.94952 11.037C5.75321 11.037 6.52398 10.7326 7.09227 10.1908C7.66056 9.64905 7.97983 8.91425 7.97983 8.14807C7.97983 7.38189 7.66056 6.64709 7.09227 6.10531C6.52398 5.56354 5.75321 5.25918 4.94952 5.25918C4.14584 5.25918 3.37507 5.56354 2.80677 6.10531C2.23848 6.64709 1.91922 7.38189 1.91922 8.14807C1.91922 8.91425 2.23848 9.64905 2.80677 10.1908C3.37507 10.7326 4.14584 11.037 4.94952 11.037Z" fill="#5F5F5F"/>
</g>
<defs>
<clipPath id="clip0_92_205">
<rect width="20" height="20" fill="white"/>
</clipPath>
</defs>
</svg>
